<svg id="visual" viewBox="0 0 960 50" width="960" height="50" xmlns="http://www.w3.org/2000/svg" xmlns:xlink="http://www.w3.org/1999/xlink" version="1.1"><rect x="0" y="0" width="960" height="50" fill="#2B2D35"></rect><path d="M0 16L22.8 18.7C45.7 21.3 91.3 26.7 137 29.7C182.7 32.7 228.3 33.3 274 29.7C319.7 26 365.3 18 411.2 18.8C457 19.7 503 29.3 548.8 35C594.7 40.7 640.3 42.3 686 36.5C731.7 30.7 777.3 17.3 823 11.5C868.7 5.7 914.3 7.3 937.2 8.2L960 9L960 51L937.2 51C914.3 51 868.7 51 823 51C777.3 51 731.7 51 686 51C640.3 51 594.7 51 548.8 51C503 51 457 51 411.2 51C365.3 51 319.7 51 274 51C228.3 51 182.7 51 137 51C91.3 51 45.7 51 22.8 51L0 51Z" fill="#3A3C44" stroke-linecap="round" stroke-linejoin="miter"></path></svg>