<svg id="visual" viewBox="0 0 960 50" width="960" height="50" xmlns="http://www.w3.org/2000/svg" xmlns:xlink="http://www.w3.org/1999/xlink" version="1.1"><rect x="0" y="0" width="960" height="50" fill="#23252D"></rect><path d="M0 17L22.8 18.5C45.7 20 91.3 23 137 23.3C182.7 23.7 228.3 21.3 274 18.7C319.7 16 365.3 13 411.2 10.7C457 8.3 503 6.7 548.8 9.2C594.7 11.7 640.3 18.3 686 23C731.7 27.7 777.3 30.3 823 30.5C868.7 30.7 914.3 28.3 937.2 27.2L960 26L960 51L937.2 51C914.3 51 868.7 51 823 51C777.3 51 731.7 51 686 51C640.3 51 594.7 51 548.8 51C503 51 457 51 411.2 51C365.3 51 319.7 51 274 51C228.3 51 182.7 51 137 51C91.3 51 45.7 51 22.8 51L0 51Z" fill="#2B2D35" stroke-linecap="round" stroke-linejoin="miter"></path></svg>