<svg id="visual" viewBox="0 0 960 50" width="960" height="50" xmlns="http://www.w3.org/2000/svg" xmlns:xlink="http://www.w3.org/1999/xlink" version="1.1"><rect x="0" y="0" width="960" height="50" fill="#3A3C44"></rect><path d="M0 34L22.8 29.5C45.7 25 91.3 16 137 14.7C182.7 13.3 228.3 19.7 274 24.2C319.7 28.7 365.3 31.3 411.2 29.5C457 27.7 503 21.3 548.8 17C594.7 12.7 640.3 10.3 686 13.2C731.7 16 777.3 24 823 24.8C868.7 25.7 914.3 19.3 937.2 16.2L960 13L960 51L937.2 51C914.3 51 868.7 51 823 51C777.3 51 731.7 51 686 51C640.3 51 594.7 51 548.8 51C503 51 457 51 411.2 51C365.3 51 319.7 51 274 51C228.3 51 182.7 51 137 51C91.3 51 45.7 51 22.8 51L0 51Z" fill="#46484F" stroke-linecap="round" stroke-linejoin="miter"></path></svg>